<?xml version="1.0" encoding="UTF-8"?>
<svg id="Calque_2" data-name="Calque 2" xmlns="http://www.w3.org/2000/svg" width="172.42mm" height="191.77mm" xmlns:xlink="http://www.w3.org/1999/xlink" viewBox="0 0 488.74 543.61">
  <defs>
    <linearGradient id="Dégradé_sans_nom_17" data-name="Dégradé sans nom 17" x1="0" y1="271.66" x2="488.74" y2="271.66" gradientUnits="userSpaceOnUse">
      <stop offset="0" stop-color="#196496"/>
      <stop offset=".09" stop-color="#2b81b1"/>
      <stop offset=".19" stop-color="#3d9ecd"/>
      <stop offset=".3" stop-color="#49b3e0"/>
      <stop offset=".4" stop-color="#51bfec"/>
      <stop offset=".5" stop-color="#54c4f0"/>
      <stop offset=".6" stop-color="#51bfec"/>
      <stop offset=".7" stop-color="#49b3e0"/>
      <stop offset=".81" stop-color="#3d9ecd"/>
      <stop offset=".91" stop-color="#2b81b1"/>
      <stop offset="1" stop-color="#196496"/>
    </linearGradient>
  </defs>
  <g id="Logo">
    <path d="M488.72,162.76c.31,36.15-2.6,72.08-9.37,107.54-6.5,34.05-16.73,67-31.88,98.41-11.93,24.73-26.36,47.79-44.02,68.66-18.63,22.01-39.86,41.31-63.71,57.77-15.52,10.71-31.87,19.91-48.55,28.46-14.91,7.65-30.54,13.91-46.36,19.58-4.14,1.48-7.47-1.16-10.84-2.6-17.88-7.67-35.45-15.99-52.27-25.85-17.54-10.28-34.37-21.54-49.95-34.59-7.13-5.97-14.6-11.66-20.98-18.37-8.12-8.54-16.57-16.78-24.1-25.9-18.6-22.57-34.25-46.97-46.82-73.38-12-25.2-20.33-51.6-26.73-78.7-5.44-23.01-8.78-46.36-10.69-69.87-1.81-22.35-3.13-44.8-2.07-67.23,1-21.04,1.95-42.11,4.58-63.06.38-3.06,1.68-4.59,4.32-5.96,29.84-15.43,59.82-30.59,91.01-43.11C137.87,19.46,176.3,7,216.66,1.9c26.92-3.41,53.69-1.1,80.27,4.39,33.36,6.88,65.5,17.62,96.89,30.58,29.82,12.31,58.97,26.14,87.46,41.33,1.89,1.01,3.21,2.19,3.38,4.5,1.04,14.9,2.33,29.77,3.18,44.69.67,11.8.85,23.58.9,35.38ZM352.16,455.7l5.59,5.22s-1.87-1.44-5.59-5.22c-4.4-4.47-8.97-8.89-12.65-13.93-7.74-10.59-13.54-22.19-17.82-34.72-4.87-14.25-7.43-29-9.47-43.7-2.68-19.38-3.54-38.99-3.63-58.65-.04-8.23,3.07-13.78,8.45-19.05,6.76-6.63,13.31-13.47,20.02-20.15,1.9-1.89,2.77-4,2.76-6.67-.05-13.31.03-26.62-.05-39.93-.03-5.24-1.32-6.53-6.54-6.56-12.64-.08-25.29-.08-37.93.01-5.15.04-6.32,1.34-6.4,6.69-.09,5.66-.09,11.31-.02,16.97.05,4.07-1.65,6.28-5.9,6.24-4.33-.04-8.65-.07-12.98,0-3.58.06-5.17-1.6-5.09-5.15.15-6.49-.26-12.94-.87-19.41-.35-3.72-1.62-5.45-5.44-5.41-9.48.09-18.97.13-28.45-.02-3.95-.06-5.29,1.64-5.2,5.41.15,6.49-.03,12.98.04,19.47.04,3.57-1.57,5.18-5.13,5.12-4.49-.08-8.99-.11-13.48.01-3.82.1-5.44-1.61-5.37-5.4.11-5.82.06-11.65,0-17.47-.07-5.89-1.18-7.05-7.03-7.08-12.81-.06-25.62-.05-38.43,0-5.65.02-6.37.73-6.4,6.31-.05,12.15.22,24.3-.13,36.43-.16,5.52,1.83,9.61,5.56,13.28,6.85,6.75,13.55,13.66,20.53,20.27,3.51,3.33,5.04,6.97,5.08,11.87.16,19.13-.29,38.24-2.29,57.25-1.42,13.51-4.09,26.88-7.54,40.05-2.31,8.84-5.63,17.29-9.69,25.55-5.77,11.72-13.05,22.22-22.57,31.12l-5.75,5.67c16.38,14.35,34.18,26.74,52.88,37.99,17.28,10.4,35.79,18.19,53.86,26.92,2.34,1.13,4.91,1.08,7.31.18,4.66-1.76,9.34-3.5,13.85-5.61,11.08-5.19,22.45-9.72,33.37-15.35,6.93-3.57,13.86-7.21,20.33-11.39,9.57-6.18,19.24-12.21,28.33-19.24,5.29-4.1,10.42-8.37,15.48-12.71"/>
    <path d="M447.46,368.4c-11.93,24.73-26.36,47.79-44.02,68.66-18.63,22.01-39.86,41.31-63.71,57.77-15.52,10.71-31.87,19.91-48.55,28.46-14.91,7.65-30.54,13.91-46.36,19.58-4.14,1.48-7.47-1.16-10.84-2.6-17.88-7.67-35.45-15.99-52.27-25.85-17.54-10.28-34.37-21.54-49.95-34.59-7.13-5.97-14.6-11.66-20.98-18.37-8.12-8.54-16.57-16.78-24.1-25.9-18.6-22.57-34.25-46.97-46.82-73.38-12-25.2-20.33-51.6-26.73-78.7-5.44-23.01-8.78-46.36-10.69-69.87-1.81-22.35-3.13-44.8-2.07-67.23,1-21.04,1.95-42.11,4.58-63.06.38-3.06,1.68-4.59,4.32-5.96,29.84-15.43,59.82-30.59,91.01-43.11C137.87,19.16,176.3,6.7,216.66,1.6c26.92-3.41,53.69-1.1,80.27,4.39,33.36,6.88,65.5,17.62,96.89,30.58,29.82,12.31,58.97,26.14,87.46,41.33,1.89,1.01,3.21,2.19,3.38,4.5,1.04,14.9,2.33,29.77,3.18,44.69.67,11.8.85,23.58.9,35.38.31,36.15-2.6,72.08-9.37,107.54-6.5,34.05-16.73,67-31.88,98.41Z" style="fill: url(#Dégradé_sans_nom_17);"/>
    <g>
      <path d="M466.73,110.4c-.38-4.97-.77-10.1-1.12-15.16-.04-.53-.07-.96-1.55-1.75C396.03,58.6,317.14,21.38,241.8,21.38h0c-7.82,0-15.54.41-22.96,1.23-32.27,4.08-66.54,13.7-107.81,30.27-29.26,11.75-57.88,26.26-84.67,40.11-1.74.9-2.22,1.54-2.43,3.27-4.11,34.94-5.39,69.1-3.81,101.5,1.72,35.21,6.86,68.62,15.26,99.31,18.08,66.02,51.22,119.96,98.56,160.49l3.63-3.58c40.14-38.77,42.01-101.55,42.09-153.96-.04-4.89-1.57-8.54-5.08-11.87-6.98-6.61-13.68-13.53-20.53-20.27-3.72-3.67-5.72-7.76-5.56-13.28.35-12.14.08-24.29.13-36.43.02-5.58.75-6.29,6.4-6.31,12.81-.05,25.62-.05,38.43,0,5.85.03,6.97,1.19,7.03,7.08.07,5.82.11,11.65,0,17.47-.07,3.79,1.55,5.5,5.37,5.4,4.49-.12,8.98-.09,13.48-.01,3.56.06,5.17-1.55,5.13-5.12-.07-6.49.11-12.98-.04-19.47-.09-3.76,1.25-5.47,5.2-5.41,9.48.15,18.97.12,28.45.02,3.82-.04,5.09,1.69,5.44,5.41.62,6.47,1.02,12.92.87,19.41-.08,3.55,1.51,5.21,5.09,5.15,4.32-.08,8.65-.05,12.98,0,4.25.04,5.95-2.17,5.9-6.24-.07-5.66-.07-11.31.02-16.97.08-5.35,1.25-6.65,6.4-6.69,12.64-.09,25.29-.09,37.93-.01,5.22.03,6.5,1.32,6.54,6.56.08,13.31,0,26.62.05,39.93,0,2.67-.86,4.78-2.76,6.67-6.71,6.68-13.26,13.52-20.02,20.15-5.38,5.27-8.49,10.81-8.45,19.05.34,34.56,2.48,69.23,13.1,102.35,4.28,12.52,10.07,24.13,17.82,34.72,3.64,5.03,11.68,13.21,16.51,17.61.01-.01.03-.03.04-.04h0c33.05-28.05,58.51-61.07,75.65-98.18,15.69-32.55,26.67-69.3,32.65-109.26,5.21-34.81,6.8-73.35,4.74-114.55-.5-8.82-1.18-17.8-1.84-26.49Z" style="fill: none;"/>
      <path d="M471.56,136.73c-.79-13.92-2-27.8-2.96-41.7-.15-2.16-1.39-3.26-3.15-4.2C399.43,56.97,318.51,18.38,241.79,18.38c-7.81,0-15.58.4-23.29,1.25-37.66,4.76-73.52,16.39-108.6,30.47-29.11,11.69-57.09,25.84-84.93,40.23-2.46,1.27-3.68,2.71-4.03,5.56-15.64,132.84,6.57,276.96,114.13,366.58,8.24,7.11,16.87,13.71,25.8,19.86.3.21.6.42.9.62.77.53,1.55,1.06,2.33,1.58,14.04,9.52,28.8,18,43.99,25.58,10.03,5.1,20.21,9.89,30.46,14.44,2.34,1.13,4.91,1.08,7.31.18,4.07-1.54,8.15-3.08,12.12-4.84,75.46-29.36,141.55-83.55,175.91-157.95,33.66-69.83,41.51-148.62,37.66-225.21ZM149.41,440.43c-2.07,2.07-14.54,19.25-27.98,5.82l-.12-.12c-40.65-39.04-69.52-89.06-85.95-149.05-8.4-30.68-13.53-64.09-15.26-99.31-1.59-32.41-.3-66.57,3.81-101.5.22-1.73.69-2.37,2.43-3.27,26.8-13.85,55.41-28.36,84.67-40.11,41.27-16.57,75.54-26.19,107.81-30.27,7.42-.81,15.14-1.23,22.96-1.23h0c75.34,0,154.23,37.22,222.26,72.1,1.48.8,1.51,1.22,1.55,1.75.35,5.06.74,10.19,1.12,15.16.66,8.69,1.34,17.67,1.84,26.49,2.07,41.2.47,79.73-4.74,114.55-5.98,39.96-16.96,76.7-32.65,109.26-14.89,32.23-36.05,61.38-63.02,86.86l-.56.53c-13.44,13.44-25.82-3.74-27.89-5.81l-.19-.24c-.26-.34-.32-.42-.55-.74-7.74-10.59-13.54-22.19-17.82-34.72-10.62-33.12-12.76-67.78-13.1-102.35-.04-8.23,3.07-13.78,8.45-19.05,6.76-6.63,13.31-13.47,20.02-20.15,1.9-1.89,2.77-4,2.76-6.67-.05-13.31.03-26.62-.05-39.93-.03-5.24-1.32-6.53-6.54-6.56-12.64-.08-25.29-.08-37.93.01-5.15.04-6.32,1.34-6.4,6.69-.09,5.66-.09,11.31-.02,16.97.05,4.07-1.65,6.28-5.9,6.24-4.33-.04-8.65-.07-12.98,0-3.58.06-5.17-1.6-5.09-5.15.15-6.49-.26-12.94-.87-19.41-.35-3.72-1.62-5.45-5.44-5.41-9.48.09-18.97.13-28.45-.02-3.95-.06-5.29,1.64-5.2,5.41.15,6.49-.03,12.98.04,19.47.04,3.57-1.57,5.18-5.13,5.12-4.49-.08-8.99-.11-13.48.01-3.82.1-5.44-1.61-5.37-5.4.11-5.82.06-11.65,0-17.47-.07-5.89-1.18-7.05-7.03-7.08-12.81-.06-25.62-.05-38.43,0-5.65.02-6.37.73-6.4,6.31-.05,12.15.22,24.3-.13,36.43-.16,5.52,1.83,9.61,5.56,13.28,6.85,6.75,13.55,13.66,20.53,20.27,3.51,3.33,5.04,6.97,5.08,11.87-.07,46.65-1.56,101.51-30.19,140.35l-.05.06Z" style="fill: #fff;"/>
    </g>
    <g>
      <path d="M162.56,66.38c2.51,0,4.5,1.99,4.5,4.5v18c0,2.51-1.99,4.5-4.5,4.5h-18c-2.51,0-4.5-1.99-4.5-4.5v-18c0-2.51,1.99-4.5,4.5-4.5h18ZM162.56,90.34c.79,0,1.46-.67,1.46-1.46v-18c0-.79-.68-1.46-1.46-1.46h-18c-.79,0-1.46.67-1.46,1.46v18c0,.79.67,1.46,1.46,1.46h18Z" style="fill: #fff;"/>
      <path d="M174.11,64.5v24.34c0,.79.68,1.46,1.46,1.46h3.68v3.08h-3.68c-2.51,0-4.54-2.03-4.54-4.54v-24.34h3.08Z" style="fill: #fff;"/>
      <path d="M199.57,102.01h-13.58v-3.11h13.58c.79,0,1.46-.67,1.46-1.46v-4.05h-14.52c-2.51,0-4.54-2.03-4.54-4.54v-17.14h3.08v17.14c0,.79.67,1.46,1.46,1.46h13.05c.79,0,1.46-.67,1.46-1.46v-17.14h3.08v25.73c0,2.55-1.99,4.58-4.54,4.58Z" style="fill: #fff;"/>
      <path d="M241.39,76.17v17.22h-3.04v-17.22c0-.79-.67-1.46-1.5-1.46h-9.04c-.82,0-1.46.68-1.46,1.46v17.22h-3.11v-17.22c0-.79-.67-1.46-1.46-1.46h-9.08c-.79,0-1.46.68-1.46,1.46v17.22h-3.11v-21.75h28.73c2.55,0,4.54,2.03,4.54,4.54Z" style="fill: #fff;"/>
      <path d="M266.96,76.17v12.68c0,2.51-2.03,4.54-4.54,4.54h-14.55v8.63h-3.08v-30.38h17.63c2.51,0,4.54,2.03,4.54,4.54ZM263.88,76.17c0-.79-.67-1.46-1.46-1.46h-13.05c-.83,0-1.5.68-1.5,1.46v12.68c0,.79.67,1.46,1.5,1.46h13.05c.79,0,1.46-.67,1.46-1.46v-12.68Z" style="fill: #fff;"/>
      <path d="M273.26,64.5v3.08h-3.08v-3.08h3.08ZM270.18,71.63h3.08v21.75h-3.08v-21.75Z" style="fill: #fff;"/>
      <path d="M280.79,71.63h17.59v30.38h-3.08v-8.63h-14.51c-2.55,0-4.58-2.03-4.58-4.54v-12.68c0-2.51,2.03-4.54,4.58-4.54ZM279.33,88.84c0,.79.64,1.46,1.46,1.46h13.05c.79,0,1.46-.67,1.46-1.46v-12.68c0-.79-.67-1.46-1.46-1.46h-13.05c-.83,0-1.46.68-1.46,1.46v12.68Z" style="fill: #fff;"/>
      <path d="M323.58,71.63v17.22c0,2.51-2.03,4.54-4.58,4.54h-13.05c-2.51,0-4.54-2.03-4.54-4.54v-17.22h3.08v17.22c0,.79.67,1.46,1.46,1.46h13.05c.83,0,1.5-.67,1.5-1.46v-17.22h3.08Z" style="fill: #fff;"/>
      <path d="M349.01,76.17v7.88h-19.09v4.8c0,.79.67,1.46,1.46,1.46h17.63v3.08h-17.63c-2.51,0-4.54-2.03-4.54-4.54v-12.68c0-2.51,2.03-4.54,4.54-4.54h13.05c2.55,0,4.58,2.03,4.58,4.54ZM345.89,80.97v-4.8c0-.79-.64-1.46-1.46-1.46h-13.05c-.79,0-1.46.68-1.46,1.46v4.8h15.98Z" style="fill: #fff;"/>
      <path d="M72.5,125.42c-.79,0-1.46.67-1.46,1.46v18c0,.79.68,1.46,1.46,1.46h22.43v3.04h-22.43c-2.51,0-4.5-1.99-4.5-4.5v-18c0-2.51,1.99-4.5,4.5-4.5h22.43v3.04h-22.43Z" style="fill: #fff;"/>
      <path d="M120.84,132.17v17.22h-17.63c-2.51,0-4.54-2.03-4.54-4.54v-7.88h19.05v-4.8c0-.79-.64-1.46-1.46-1.46h-17.59v-3.08h17.59c2.55,0,4.58,2.03,4.58,4.54ZM117.73,140.04h-15.98v4.8c0,.79.67,1.46,1.46,1.46h14.51v-6.26Z" style="fill: #fff;"/>
      <path d="M145.97,132.47h-3.11v-.3c0-.79-.68-1.46-1.46-1.46h-13.05c-.79,0-1.46.68-1.46,1.46v3.34c0,.79.67,1.46,1.46,1.46h13.05c2.55,0,4.58,2.03,4.58,4.54v3.34c0,2.51-2.03,4.54-4.58,4.54h-13.05c-2.51,0-4.54-2.03-4.54-4.54v-.3h3.08v.3c0,.79.67,1.46,1.46,1.46h13.05c.79,0,1.46-.67,1.46-1.46v-3.34c0-.79-.68-1.46-1.46-1.46h-13.05c-2.51,0-4.54-2.03-4.54-4.54v-3.34c0-2.51,2.03-4.54,4.54-4.54h13.05c2.55,0,4.58,2.03,4.58,4.54v.3Z" style="fill: #fff;"/>
      <path d="M152.79,130.7v14.14c0,.79.67,1.46,1.46,1.46h7.95v3.08h-7.95c-2.55,0-4.54-2.03-4.54-4.54v-24.34h3.08v7.13h9.41v3.08h-9.41Z" style="fill: #fff;"/>
      <path d="M187.18,132.17v7.88h-19.09v4.8c0,.79.68,1.46,1.46,1.46h17.63v3.08h-17.63c-2.51,0-4.54-2.03-4.54-4.54v-12.68c0-2.51,2.03-4.54,4.54-4.54h13.05c2.55,0,4.58,2.03,4.58,4.54ZM184.07,136.97v-4.8c0-.79-.64-1.46-1.46-1.46h-13.05c-.79,0-1.46.68-1.46,1.46v4.8h15.98Z" style="fill: #fff;"/>
      <path d="M193.33,120.5v24.34c0,.79.67,1.46,1.46,1.46h3.68v3.08h-3.68c-2.51,0-4.54-2.03-4.54-4.54v-24.34h3.08Z" style="fill: #fff;"/>
      <path d="M223.82,132.17v12.68c0,2.51-2.03,4.54-4.54,4.54h-17.63v-28.88h3.08v7.13h14.55c2.51,0,4.54,2.03,4.54,4.54ZM220.74,132.17c0-.79-.67-1.46-1.46-1.46h-13.05c-.83,0-1.5.68-1.5,1.46v12.68c0,.79.68,1.46,1.5,1.46h13.05c.79,0,1.46-.67,1.46-1.46v-12.68Z" style="fill: #fff;"/>
      <path d="M229.66,120.5v24.34c0,.79.67,1.46,1.46,1.46h3.68v3.08h-3.68c-2.51,0-4.54-2.03-4.54-4.54v-24.34h3.08Z" style="fill: #fff;"/>
      <path d="M259.7,132.17v17.22h-17.63c-2.51,0-4.54-2.03-4.54-4.54v-7.88h19.05v-4.8c0-.79-.64-1.46-1.46-1.46h-17.59v-3.08h17.59c2.55,0,4.58,2.03,4.58,4.54ZM256.59,140.04h-15.98v4.8c0,.79.67,1.46,1.46,1.46h14.51v-6.26Z" style="fill: #fff;"/>
      <path d="M285.24,132.17v17.22h-3.08v-17.22c0-.79-.68-1.46-1.46-1.46h-13.05c-.83,0-1.5.68-1.5,1.46v17.22h-3.08v-21.75h17.63c2.51,0,4.54,2.03,4.54,4.54Z" style="fill: #fff;"/>
      <path d="M306.28,157.97h-13.58v-3.11h13.58c.79,0,1.46-.68,1.46-1.46v-4.01h-14.51c-2.51,0-4.54-2.03-4.54-4.54v-12.68c0-2.51,2.03-4.54,4.54-4.54h13.05c2.55,0,4.54,2.03,4.54,4.54v21.23c0,2.55-1.99,4.58-4.54,4.58ZM306.28,146.31c.79,0,1.46-.67,1.46-1.46v-12.68c0-.79-.67-1.46-1.46-1.46h-13.05c-.79,0-1.46.68-1.46,1.46v12.68c0,.79.67,1.46,1.46,1.46h13.05Z" style="fill: #fff;"/>
      <path d="M336.28,132.17v7.88h-19.09v4.8c0,.79.67,1.46,1.46,1.46h17.63v3.08h-17.63c-2.51,0-4.54-2.03-4.54-4.54v-12.68c0-2.51,2.03-4.54,4.54-4.54h13.05c2.55,0,4.58,2.03,4.58,4.54ZM333.16,136.97v-4.8c0-.79-.64-1.46-1.46-1.46h-13.05c-.79,0-1.46.68-1.46,1.46v4.8h15.98Z" style="fill: #fff;"/>
      <path d="M357.65,127.63c2.55,0,4.58,2.03,4.58,4.54v12.68c0,2.51-2.03,4.54-4.58,4.54h-13.05c-2.51,0-4.54-2.03-4.54-4.54v-12.68c0-2.51,2.03-4.54,4.54-4.54h13.05ZM344.6,130.7c-.79,0-1.46.68-1.46,1.46v12.68c0,.79.67,1.46,1.46,1.46h13.05c.83,0,1.46-.67,1.46-1.46v-12.68c0-.79-.64-1.46-1.46-1.46h-13.05Z" style="fill: #fff;"/>
      <path d="M369.12,120.5v3.08h-3.08v-3.08h3.08ZM366.05,127.63h3.08v21.75h-3.08v-21.75Z" style="fill: #fff;"/>
      <path d="M395.86,132.47h-3.11v-.3c0-.79-.67-1.46-1.46-1.46h-13.05c-.79,0-1.46.68-1.46,1.46v3.34c0,.79.67,1.46,1.46,1.46h13.05c2.55,0,4.58,2.03,4.58,4.54v3.34c0,2.51-2.03,4.54-4.58,4.54h-13.05c-2.51,0-4.54-2.03-4.54-4.54v-.3h3.08v.3c0,.79.67,1.46,1.46,1.46h13.05c.79,0,1.46-.67,1.46-1.46v-3.34c0-.79-.67-1.46-1.46-1.46h-13.05c-2.51,0-4.54-2.03-4.54-4.54v-3.34c0-2.51,2.02-4.54,4.54-4.54h13.05c2.55,0,4.58,2.03,4.58,4.54v.3Z" style="fill: #fff;"/>
      <path d="M421.14,132.17v7.88h-19.09v4.8c0,.79.67,1.46,1.46,1.46h17.63v3.08h-17.63c-2.51,0-4.54-2.03-4.54-4.54v-12.68c0-2.51,2.03-4.54,4.54-4.54h13.05c2.55,0,4.58,2.03,4.58,4.54ZM418.02,136.97v-4.8c0-.79-.64-1.46-1.46-1.46h-13.05c-.79,0-1.46.68-1.46,1.46v4.8h15.98Z" style="fill: #fff;"/>
    </g>
    <g>
      <path d="M209.09,466.76l4.85-3.53c2.55-1.81,4.36-3.44,5.44-4.9s1.62-3.15,1.62-5.1c0-1.56-.42-2.88-1.25-3.96-.83-1.08-1.97-1.63-3.43-1.63-1.17,0-2.23.55-3.18,1.64-.95,1.09-1.61,2.4-1.97,3.93l-1.26-.43c.36-1.81,1.27-3.39,2.72-4.74,1.45-1.35,3.03-2.02,4.74-2.02,1.96,0,3.51.57,4.65,1.71,1.14,1.14,1.71,2.73,1.71,4.76,0,2.19-.69,4.13-2.06,5.83-1.37,1.7-3.88,3.78-7.54,6.23l-1.98,1.33h10.15l1.77-4.6.88.2-.65,6.31h-15.07l-.16-1.03Z" style="fill: #196496;"/>
      <path d="M228.27,457.26c0-1.08.12-2.15.37-3.22.25-1.07.62-2.08,1.12-3.03.5-.95,1.1-1.79,1.79-2.53.69-.73,1.51-1.32,2.47-1.75.96-.43,1.98-.65,3.05-.65,1.81,0,3.39.52,4.73,1.56,1.34,1.04,2.34,2.4,3,4.07.66,1.67.99,3.52.99,5.56,0,1.65-.24,3.17-.72,4.57-.48,1.4-1.13,2.58-1.94,3.53-.82.95-1.76,1.69-2.83,2.22-1.07.53-2.19.8-3.36.8-2.52,0-4.59-1.05-6.22-3.14-1.63-2.1-2.45-4.75-2.45-7.97ZM230.92,457.35c0,1.84.25,3.5.74,4.97.49,1.48,1.21,2.65,2.16,3.52s2.03,1.3,3.26,1.3c1.9,0,3.38-.89,4.44-2.68,1.06-1.79,1.58-4.19,1.58-7.2,0-1.29-.12-2.51-.35-3.66-.23-1.15-.58-2.21-1.04-3.18s-1.1-1.73-1.91-2.3-1.74-.85-2.81-.85c-1.15,0-2.14.28-2.96.85-.82.57-1.45,1.35-1.89,2.35-.43,1-.75,2.06-.93,3.18-.19,1.12-.28,2.36-.28,3.71Z" style="fill: #196496;"/>
      <path d="M249.07,466.76l4.85-3.53c2.55-1.81,4.36-3.44,5.44-4.9s1.62-3.15,1.62-5.1c0-1.56-.42-2.88-1.25-3.96-.83-1.08-1.97-1.63-3.43-1.63-1.17,0-2.23.55-3.18,1.64-.95,1.09-1.61,2.4-1.97,3.93l-1.26-.43c.36-1.81,1.27-3.39,2.72-4.74s3.03-2.02,4.74-2.02c1.96,0,3.51.57,4.65,1.71s1.71,2.73,1.71,4.76c0,2.19-.68,4.13-2.05,5.83-1.37,1.7-3.88,3.78-7.54,6.23l-1.98,1.33h10.15l1.77-4.6.88.2-.65,6.31h-15.07l-.16-1.03Z" style="fill: #196496;"/>
      <path d="M267.33,467.72l.07-1.01,5.41-.83v-16.89h-5.1l.13-.99,6.92-1.21h.56v19.16l5.44.54-.11,1.24h-13.32Z" style="fill: #196496;"/>
    </g>
  </g>
</svg>