<svg xmlns="http://www.w3.org/2000/svg" viewBox="19 21 451 433"><path d="M149.41,440.43c-2.07,2.07-14.54,19.25-27.98,5.82l-.12-.12c-40.65-39.04-69.52-89.06-85.95-149.05-8.4-30.68-13.53-64.09-15.26-99.31-1.59-32.41-.3-66.57,3.81-101.5.22-1.73.69-2.37,2.43-3.27,26.8-13.85,55.41-28.36,84.67-40.11,41.27-16.57,75.54-26.19,107.81-30.27,7.42-.81,15.14-1.23,22.96-1.23h0c75.34,0,154.23,37.22,222.26,72.1,1.48.8,1.51,1.22,1.55,1.75.35,5.06.74,10.19,1.12,15.16.66,8.69,1.34,17.67,1.84,26.49,2.07,41.2.47,79.73-4.74,114.55-5.98,39.96-16.96,76.7-32.65,109.26-14.89,32.23-36.05,61.38-63.02,86.86l-.56.53c-13.44,13.44-25.82-3.74-27.89-5.81l-.19-.24c-.26-.34-.32-.42-.55-.74-7.74-10.59-13.54-22.19-17.82-34.72-10.62-33.12-12.76-67.78-13.1-102.35-.04-8.23,3.07-13.78,8.45-19.05,6.76-6.63,13.31-13.47,20.02-20.15,1.9-1.89,2.77-4,2.76-6.67-.05-13.31.03-26.62-.05-39.93-.03-5.24-1.32-6.53-6.54-6.56-12.64-.08-25.29-.08-37.93.01-5.15.04-6.32,1.34-6.4,6.69-.09,5.66-.09,11.31-.02,16.97.05,4.07-1.65,6.28-5.9,6.24-4.33-.04-8.65-.07-12.98,0-3.58.06-5.17-1.6-5.09-5.15.15-6.49-.26-12.94-.87-19.41-.35-3.72-1.62-5.45-5.44-5.41-9.48.09-18.97.13-28.45-.02-3.95-.06-5.29,1.64-5.2,5.41.15,6.49-.03,12.98.04,19.47.04,3.57-1.57,5.18-5.13,5.12-4.49-.08-8.99-.11-13.48.01-3.82.1-5.44-1.61-5.37-5.4.11-5.82.06-11.65,0-17.47-.07-5.89-1.18-7.05-7.03-7.08-12.81-.06-25.62-.05-38.43,0-5.65.02-6.37.73-6.4,6.31-.05,12.15.22,24.3-.13,36.43-.16,5.52,1.83,9.61,5.56,13.28,6.85,6.75,13.55,13.66,20.53,20.27,3.51,3.33,5.04,6.97,5.08,11.87-.07,46.65-1.56,101.51-30.19,140.35l-.05.06Z" style="fill:currentColor"/></svg>